<svg xmlns="http://www.w3.org/2000/svg" viewBox="0 0 64 64">
  <defs>
    <clipPath id="flag-clip">
      <rect x="4" y="4" width="56" height="56" rx="12" ry="12" />
    </clipPath>
  </defs>
  <rect width="64" height="64" fill="#f5efe2" />
  <g clip-path="url(#flag-clip)">
    <rect x="4" y="4" width="18.67" height="56" fill="#006847" />
    <rect x="22.67" y="4" width="18.66" height="56" fill="#ffffff" />
    <rect x="41.33" y="4" width="18.67" height="56" fill="#ce1126" />
  </g>
  <g transform="translate(32 33)">
    <path
      d="M-5.4 1.2c1.7-4.4 3.4-6.7 5.4-6.7s3.7 2.3 5.4 6.7c-1.4-.9-3.3-1.4-5.4-1.4s-4 .5-5.4 1.4Z"
      fill="#8a572a"
    />
    <path
      d="M-1.5-1.2c.4-2.3 1-3.4 1.5-3.4s1.1 1.1 1.5 3.4"
      fill="none"
      stroke="#6c3f1b"
      stroke-linecap="round"
      stroke-width="1.3"
    />
    <path
      d="M-1.3.3h2.6c.8 0 1.4.6 1.4 1.4v4.4h-5.4V1.7C-2.7.9-2.1.3-1.3.3Z"
      fill="#0f8a54"
    />
    <ellipse cx="0" cy="7.2" rx="5.9" ry="1.5" fill="#4a90d9" />
    <path
      d="M-6.4 6.2c1.5 2 3.8 3 6.4 3s4.9-1 6.4-3"
      fill="none"
      stroke="#2d6b3f"
      stroke-linecap="round"
      stroke-width="1.5"
    />
    <path d="M-6.5 6.2c-1.5 0-2.6.9-3.2 2.1 1.7.2 3.2-.7 4-2Z" fill="#2d6b3f" />
    <path d="M6.5 6.2c1.5 0 2.6.9 3.2 2.1-1.7.2-3.2-.7-4-2Z" fill="#2d6b3f" />
  </g>
  <rect
    x="4"
    y="4"
    width="56"
    height="56"
    rx="12"
    ry="12"
    fill="none"
    stroke="#d7cdbd"
    stroke-width="1.5"
  />
</svg>
